<?xml version="1.0" encoding="utf-8"?>
<!-- Generator: Adobe Illustrator 18.1.0, SVG Export Plug-In . SVG Version: 6.00 Build 0)  -->
<svg version="1.1" id="Lager_1" xmlns="http://www.w3.org/2000/svg" xmlns:xlink="http://www.w3.org/1999/xlink" x="0px" y="0px"
	 viewBox="0 0 500 500" enable-background="new 0 0 500 500" xml:space="preserve">
<path fill="#010101" d="M242.5,84.3v56.5H257V84.3H242.5z M177,100.2l-12.5,8l30,48l12.5-8L177,100.2L177,100.2z M324,101.8
	l-27.5,49.5l13,7.5l27.5-49.5L324,101.8z M112.5,155.7l-7,13l49,27.5l7.5-13L112.5,155.7L112.5,155.7z M250,157.7
	c-50.5,0-91.5,41.5-91.5,92s41,92,91.5,92s91.5-41,91.5-92S300.5,157.7,250,157.7z M388.5,159.8l-49,28l7.5,13l49-28.5L388.5,159.8
	L388.5,159.8z M84,237.7v15h56.5v-15H84z M359.5,238.8v14.5H416v-14.5H359.5z M148.5,290.7l-47.5,30l7.5,12.5l48-30L148.5,290.7z
	 M349,294.3l-7,13l49,27.5l7.5-13L349,294.3z M311.5,339.3l-12.5,7.5l28,49l12.5-7.5L311.5,339.3z M188.5,339.8L161,389.3l13,7.5
	l27.5-49.5C201.5,346.8,188.5,339.8,188.5,339.8z M242,359.3v56.5h14.5v-56.5H242z"/>
</svg>
