<?xml version="1.0" encoding="utf-8"?>
<!-- Generator: Adobe Illustrator 18.1.0, SVG Export Plug-In . SVG Version: 6.00 Build 0)  -->
<svg version="1.1" id="Lager_1" xmlns="http://www.w3.org/2000/svg" xmlns:xlink="http://www.w3.org/1999/xlink" x="0px" y="0px"
	 viewBox="0 0 500 500" enable-background="new 0 0 500 500" xml:space="preserve">
<path fill="#010101" stroke="#FFFFFF" stroke-width="8" stroke-miterlimit="10" d="M255.1,141c-52.3,0-94.3,41.6-97.3,93
	c-25.3,2.6-45.4,21.4-49.7,46.3c-1.3,0-2.6-0.9-4.3-0.9c-27.9,0-50.6,22.7-50.6,50.2c0,13.7,6.4,25.7,16.3,32.2
	c9.9,6.4,21.9,8.6,34.3,8.6h128.6h69.9H367c43.7,0,79.8-35.6,79.8-79.8c0-43.7-35.6-79.8-79.8-79.8c-6.9,0-12.9,1.7-18.9,3.4
	C337.4,172.7,300.5,141,255.1,141L255.1,141z"/>
<path fill="#010101" d="M205.1,387.9c0,0-23.5,48-23.5,65.5s23.5,16,23.5,16s18-2.5,18-18C223.1,435.4,205.1,387.9,205.1,387.9z"/>
<path fill="#010101" d="M272.6,387.9c0,0-23.5,48-23.5,65.5s23.5,16,23.5,16s18-2.5,18-18C290.6,435.4,272.6,387.9,272.6,387.9z"/>
<polygon fill="#010101" stroke="#FFFFFF" stroke-width="8" stroke-miterlimit="10" points="223.3,205.2 146.2,337.7 201.2,337.7 
	157.2,426.2 289.7,293.7 223.3,293.7 278.8,205.2 "/>
</svg>
