<?xml version="1.0" encoding="utf-8"?>
<!-- Generator: Adobe Illustrator 18.1.0, SVG Export Plug-In . SVG Version: 6.00 Build 0)  -->
<svg version="1.1" id="Lager_1" xmlns="http://www.w3.org/2000/svg" xmlns:xlink="http://www.w3.org/1999/xlink" x="0px" y="0px"
	 viewBox="0 0 500 500" enable-background="new 0 0 500 500" xml:space="preserve">
<path fill="#010101" d="M303.3,34.4v56.5h14.5V34.4H303.3z M237.8,50.4l-12.5,8l30,48l12.5-8L237.8,50.4L237.8,50.4z M384.8,51.9
	l-27.5,49.5l13,7.5l27.5-49.5L384.8,51.9z M173.3,105.9l-7,13l49,27.5l7.5-13L173.3,105.9L173.3,105.9z M310.8,107.9
	c-50.5,0-91.5,41.5-91.5,92s41,92,91.5,92s91.5-41,91.5-92S361.3,107.9,310.8,107.9z M449.3,109.9l-49,28l7.5,13l49-28.5
	L449.3,109.9L449.3,109.9z M144.8,187.9v15h56.5v-15H144.8z M420.3,188.9v14.5h56.5v-14.5H420.3z M209.3,240.9l-47.5,30l7.5,12.5
	l48-30L209.3,240.9z M409.8,244.4l-7,13l49,27.5l7.5-13L409.8,244.4z M372.3,289.4l-12.5,7.5l28,49l12.5-7.5L372.3,289.4z
	 M249.3,289.9l-27.5,49.5l13,7.5l27.5-49.5C262.3,296.9,249.3,289.9,249.3,289.9z M302.8,309.4v56.5h14.5v-56.5H302.8z"/>
<path fill="#010101" stroke="#FFFFFF" stroke-width="8" stroke-miterlimit="10" d="M236.3,144.5c-52.3,0-94.3,41.6-97.3,93
	c-25.3,2.6-45.4,21.4-49.7,46.3c-1.3,0-2.6-0.9-4.3-0.9c-27.9,0-50.6,22.7-50.6,50.2c0,13.7,6.4,25.7,16.3,32.2
	c9.9,6.4,21.9,8.6,34.3,8.6h128.6h69.9h64.7c43.7,0,79.8-35.6,79.8-79.8c0-43.7-35.6-79.8-79.8-79.8c-6.9,0-12.9,1.7-18.9,3.4
	C318.7,176.2,281.8,144.5,236.3,144.5L236.3,144.5z"/>
<path fill="#010101" d="M240.1,391.4c0,0-23.5,48-23.5,65.5s23.5,16,23.5,16s18-2.5,18-18C258.1,438.9,240.1,391.4,240.1,391.4z"/>
<polygon fill="#010101" stroke="#FFFFFF" stroke-width="8" stroke-miterlimit="10" points="202.6,200.2 125.6,332.7 180.6,332.7 
	136.6,421.2 269.1,288.7 202.6,288.7 258.1,200.2 "/>
</svg>
