<?xml version="1.0" encoding="utf-8"?>
<!-- Generator: Adobe Illustrator 18.1.0, SVG Export Plug-In . SVG Version: 6.00 Build 0)  -->
<svg version="1.1" id="Lager_1" xmlns="http://www.w3.org/2000/svg" xmlns:xlink="http://www.w3.org/1999/xlink" x="0px" y="0px"
	 viewBox="0 0 500 500" enable-background="new 0 0 500 500" xml:space="preserve">
<path fill="#010101" d="M163,391.4c0,0-23.5,48-23.5,65.5s23.5,16,23.5,16s18-2.5,18-18C181,438.9,163,391.4,163,391.4z"/>
<path fill="#010101" d="M230.5,391.4c0,0-23.5,48-23.5,65.5s23.5,16,23.5,16s18-2.5,18-18C248.5,438.9,230.5,391.4,230.5,391.4z"/>
<path fill="#010101" d="M298.1,391.4c0,0-23.5,48-23.5,65.5s23.5,16,23.5,16s18-2.5,18-18C316.1,438.9,298.1,391.4,298.1,391.4z"/>
<path fill="#010101" d="M299.9,34.4v56.5h14.5V34.4H299.9z M234.4,50.4l-12.5,8l30,48l12.5-8L234.4,50.4L234.4,50.4z M381.4,51.9
	l-27.5,49.5l13,7.5l27.5-49.5L381.4,51.9z M169.9,105.9l-7,13l49,27.5l7.5-13L169.9,105.9L169.9,105.9z M307.4,107.9
	c-50.5,0-91.5,41.5-91.5,92s41,92,91.5,92s91.5-41,91.5-92S357.9,107.9,307.4,107.9z M445.9,109.9l-49,28l7.5,13l49-28.5
	L445.9,109.9L445.9,109.9z M141.4,187.9v15h56.5v-15H141.4z M416.9,188.9v14.5h56.5v-14.5H416.9z M205.9,240.9l-47.5,30l7.5,12.5
	l48-30L205.9,240.9z M406.4,244.4l-7,13l49,27.5l7.5-13L406.4,244.4z M368.9,289.4l-12.5,7.5l28,49l12.5-7.5L368.9,289.4z
	 M245.9,289.9l-27.5,49.5l13,7.5l27.5-49.5C258.9,296.9,245.9,289.9,245.9,289.9z M299.4,309.4v56.5h14.5v-56.5H299.4z"/>
<path fill="#010101" stroke="#FFFFFF" stroke-width="8" stroke-miterlimit="10" d="M232.9,144.5c-52.3,0-94.3,41.6-97.3,93
	c-25.3,2.6-45.4,21.4-49.7,46.3c-1.3,0-2.6-0.9-4.3-0.9C53.7,283,31,305.7,31,333.2c0,13.7,6.4,25.7,16.3,32.2
	c9.9,6.4,21.9,8.6,34.3,8.6h128.6h69.9h64.7c43.7,0,79.8-35.6,79.8-79.8c0-43.7-35.6-79.8-79.8-79.8c-6.9,0-12.9,1.7-18.9,3.4
	C315.3,176.2,278.4,144.5,232.9,144.5L232.9,144.5z"/>
<polygon fill="#010101" stroke="#FFFFFF" stroke-width="8" stroke-miterlimit="10" points="199.2,200.2 122.2,332.7 177.2,332.7 
	133.2,421.2 265.7,288.7 199.2,288.7 254.7,200.2 "/>
</svg>
