<?xml version="1.0" encoding="utf-8"?>
<!-- Generator: Adobe Illustrator 18.1.0, SVG Export Plug-In . SVG Version: 6.00 Build 0)  -->
<svg version="1.1" id="Lager_1" xmlns="http://www.w3.org/2000/svg" xmlns:xlink="http://www.w3.org/1999/xlink" x="0px" y="0px"
	 viewBox="0 0 500 500" enable-background="new 0 0 500 500" xml:space="preserve">
<path fill="#010101" d="M291.4,29.8v56.5h14.5V29.8H291.4z M225.9,45.8l-12.5,8l30,48l12.5-8L225.9,45.8L225.9,45.8z M372.9,47.3
	l-27.5,49.5l13,7.5l27.5-49.5L372.9,47.3z M161.4,101.3l-7,13l49,27.5l7.5-13L161.4,101.3L161.4,101.3z M298.9,103.3
	c-50.5,0-91.5,41.5-91.5,92s41,92,91.5,92s91.5-41,91.5-92S349.4,103.3,298.9,103.3z M437.4,105.3l-49,28l7.5,13l49-28.5
	L437.4,105.3L437.4,105.3z M132.9,183.3v15h56.5v-15H132.9z M408.4,184.3v14.5h56.5v-14.5H408.4z M197.4,236.3l-47.5,30l7.5,12.5
	l48-30L197.4,236.3z M397.9,239.8l-7,13l49,27.5l7.5-13L397.9,239.8z M360.4,284.8l-12.5,7.5l28,49l12.5-7.5L360.4,284.8z
	 M237.4,285.3l-27.5,49.5l13,7.5l27.5-49.5C250.4,292.3,237.4,285.3,237.4,285.3z M290.9,304.8v56.5h14.5v-56.5H290.9z"/>
<path fill="#010101" stroke="#FFFFFF" stroke-width="8" stroke-miterlimit="10" d="M224.4,139.8c-52.3,0-94.3,41.6-97.3,93
	c-25.3,2.6-45.4,21.4-49.7,46.3c-1.3,0-2.6-0.9-4.3-0.9c-27.9,0-50.6,22.7-50.6,50.2c0,13.7,6.4,25.7,16.3,32.2s21.9,8.6,34.3,8.6
	h128.6h69.9h64.7c43.7,0,79.8-35.6,79.8-79.8c0-43.7-35.6-79.8-79.8-79.8c-6.9,0-12.9,1.7-18.9,3.4
	C306.8,171.5,269.9,139.8,224.4,139.8L224.4,139.8z"/>
<polygon fill="#010101" stroke="#FFFFFF" stroke-width="8" stroke-miterlimit="10" points="190.7,195.5 113.7,328 168.7,328 
	124.7,416.5 257.2,284 190.7,284 246.2,195.5 "/>
<g>
	<path d="M130.8,430.3c0-2.3-0.3-4.6-1-7.2c-0.7-2.5-1.4-5-2.2-7.4c-0.8-2.4-1.6-4.8-2.2-7.1c-0.7-2.3-1-4.4-1-6.2
		c0-2.9,0.8-5.3,2.3-7.3c1.6-1.9,3.5-2.9,5.7-2.9c2.2,0,4.1,1,5.6,2.9c1.6,1.9,2.3,4.4,2.3,7.3c0,1.8-0.3,3.9-1,6.2
		c-0.7,2.3-1.4,4.7-2.2,7.1c-0.8,2.4-1.6,4.9-2.2,7.4s-1,4.9-1,7.2c2-1.2,3.9-2.7,5.7-4.5c1.8-1.8,3.6-3.7,5.3-5.6
		c1.7-1.9,3.4-3.8,5-5.5c1.6-1.7,3.2-3.1,4.8-3.9c2-1.2,4-1.7,6-1.7c1.5,0,2.8,0.3,3.9,0.9c1.2,0.6,2.1,1.5,2.7,2.6
		c0.6,1.2,0.9,2.3,0.9,3.4c0,1.7-0.5,3.3-1.5,4.9c-1,1.6-2.4,2.9-4.2,3.9c-1.5,0.9-3.4,1.6-5.7,2.1c-2.3,0.5-4.7,1.1-7.2,1.6
		c-2.5,0.5-5,1.1-7.4,1.8s-4.7,1.6-6.7,2.7c2,1.1,4.2,2,6.7,2.6c2.5,0.7,5,1.2,7.5,1.7c2.5,0.5,4.9,1,7.3,1.6
		c2.3,0.5,4.3,1.3,5.8,2.1c1.8,1.1,3.2,2.4,4.2,4c0.9,1.6,1.4,3.2,1.4,4.8c0,1.1-0.3,2.2-0.9,3.4c-0.7,1.2-1.5,2-2.7,2.6
		c-1.1,0.6-2.4,0.9-3.9,0.9c-2.1,0-4.2-0.5-6.2-1.6c-1.6-0.9-3.2-2.2-4.8-3.9c-1.6-1.7-3.3-3.5-5-5.5c-1.7-1.9-3.5-3.8-5.2-5.7
		s-3.7-3.4-5.7-4.5c0,2.3,0.3,4.6,1,7.2s1.4,5,2.2,7.5c0.8,2.5,1.6,4.9,2.2,7.2c0.7,2.3,1,4.3,1,6.1c0,2.9-0.8,5.4-2.3,7.3
		s-3.4,3-5.6,3c-2.3,0-4.2-1-5.7-3c-1.6-2-2.3-4.4-2.3-7.3c0-1.8,0.3-3.9,1-6.2c0.7-2.3,1.4-4.7,2.2-7.1c0.8-2.4,1.5-4.9,2.2-7.4
		c0.7-2.5,1-4.9,1.1-7.2c-2,1.2-3.9,2.8-5.7,4.6c-1.8,1.8-3.6,3.7-5.3,5.6c-1.7,1.9-3.4,3.8-5,5.5c-1.6,1.7-3.3,3-4.9,3.9
		c-2.1,1.2-4.2,1.9-6.1,1.9c-1.5,0-2.8-0.3-3.9-0.9c-1.2-0.6-2.1-1.5-2.7-2.6c-0.6-1-0.9-2.1-0.9-3.3c0-1.7,0.5-3.3,1.5-5
		c1-1.6,2.4-3,4.3-4c1.5-0.9,3.3-1.6,5.6-2.1c2.3-0.5,4.7-1.1,7.3-1.6c2.6-0.5,5.1-1.1,7.7-1.8c2.6-0.7,4.8-1.6,6.8-2.7
		c-2-1.2-4.2-2.1-6.7-2.7c-2.5-0.7-5-1.2-7.6-1.7c-2.6-0.5-5-1-7.3-1.6c-2.3-0.5-4.2-1.3-5.7-2.2c-1.8-1.1-3.3-2.5-4.3-4.1
		c-1.1-1.6-1.6-3.2-1.6-4.8c0-1.2,0.3-2.4,1-3.4c0.7-1.2,1.6-2.1,2.8-2.7c1.2-0.5,2.5-0.8,4-0.8c2.1,0,4.2,0.5,6.1,1.5
		c1.6,1,3.2,2.4,4.8,4.2c1.6,1.7,3.2,3.6,4.9,5.5c1.7,1.9,3.4,3.8,5.2,5.6C126.9,427.7,128.8,429.1,130.8,430.3z"/>
</g>
<g>
	<path d="M219.1,430.3c0-2.3-0.3-4.6-1-7.2c-0.7-2.5-1.4-5-2.2-7.4c-0.8-2.4-1.6-4.8-2.2-7.1c-0.7-2.3-1-4.4-1-6.2
		c0-2.9,0.8-5.3,2.3-7.3c1.6-1.9,3.5-2.9,5.7-2.9c2.2,0,4.1,1,5.6,2.9c1.6,1.9,2.3,4.4,2.3,7.3c0,1.8-0.3,3.9-1,6.2
		c-0.7,2.3-1.4,4.7-2.2,7.1c-0.8,2.4-1.6,4.9-2.2,7.4c-0.7,2.5-1,4.9-1,7.2c2-1.2,3.9-2.7,5.7-4.5c1.8-1.8,3.6-3.7,5.3-5.6
		c1.7-1.9,3.4-3.8,5-5.5c1.6-1.7,3.2-3.1,4.8-3.9c2-1.2,4-1.7,6-1.7c1.5,0,2.8,0.3,3.9,0.9c1.2,0.6,2.1,1.5,2.7,2.6
		c0.6,1.2,0.9,2.3,0.9,3.4c0,1.7-0.5,3.3-1.5,4.9c-1,1.6-2.4,2.9-4.2,3.9c-1.5,0.9-3.4,1.6-5.7,2.1c-2.3,0.5-4.7,1.1-7.2,1.6
		c-2.5,0.5-5,1.1-7.4,1.8s-4.7,1.6-6.7,2.7c2,1.1,4.2,2,6.7,2.6c2.5,0.7,5,1.2,7.5,1.7c2.5,0.5,4.9,1,7.3,1.6
		c2.3,0.5,4.3,1.3,5.8,2.1c1.8,1.1,3.2,2.4,4.2,4c0.9,1.6,1.4,3.2,1.4,4.8c0,1.1-0.3,2.2-0.9,3.4c-0.7,1.2-1.5,2-2.7,2.6
		c-1.1,0.6-2.4,0.9-3.9,0.9c-2.1,0-4.2-0.5-6.2-1.6c-1.6-0.9-3.2-2.2-4.8-3.9c-1.6-1.7-3.3-3.5-5-5.5c-1.7-1.9-3.5-3.8-5.2-5.7
		s-3.7-3.4-5.7-4.5c0,2.3,0.3,4.6,1,7.2c0.7,2.5,1.4,5,2.2,7.5c0.8,2.5,1.6,4.9,2.2,7.2c0.7,2.3,1,4.3,1,6.1c0,2.9-0.8,5.4-2.3,7.3
		c-1.6,2-3.4,3-5.6,3c-2.3,0-4.2-1-5.7-3s-2.3-4.4-2.3-7.3c0-1.8,0.3-3.9,1-6.2c0.7-2.3,1.4-4.7,2.2-7.1c0.8-2.4,1.5-4.9,2.2-7.4
		s1-4.9,1.1-7.2c-2,1.2-3.9,2.8-5.7,4.6c-1.8,1.8-3.6,3.7-5.3,5.6c-1.7,1.9-3.4,3.8-5,5.5c-1.6,1.7-3.3,3-4.9,3.9
		c-2.1,1.2-4.2,1.9-6.1,1.9c-1.5,0-2.8-0.3-3.9-0.9c-1.2-0.6-2.1-1.5-2.7-2.6c-0.6-1-0.9-2.1-0.9-3.3c0-1.7,0.5-3.3,1.5-5
		c1-1.6,2.4-3,4.3-4c1.5-0.9,3.3-1.6,5.6-2.1c2.3-0.5,4.7-1.1,7.3-1.6c2.6-0.5,5.1-1.1,7.7-1.8c2.6-0.7,4.8-1.6,6.8-2.7
		c-2-1.2-4.2-2.1-6.7-2.7c-2.5-0.7-5-1.2-7.6-1.7c-2.6-0.5-5-1-7.3-1.6c-2.3-0.5-4.2-1.3-5.7-2.2c-1.8-1.1-3.3-2.5-4.3-4.1
		c-1.1-1.6-1.6-3.2-1.6-4.8c0-1.2,0.3-2.4,1-3.4c0.7-1.2,1.6-2.1,2.8-2.7c1.2-0.5,2.5-0.8,4-0.8c2.1,0,4.2,0.5,6.1,1.5
		c1.6,1,3.2,2.4,4.8,4.2c1.6,1.7,3.2,3.6,4.9,5.5c1.7,1.9,3.4,3.8,5.2,5.6C215.1,427.7,217.1,429.1,219.1,430.3z"/>
</g>
<g>
	<path d="M304.8,430.3c0-2.3-0.3-4.6-1-7.2c-0.7-2.5-1.4-5-2.2-7.4c-0.8-2.4-1.6-4.8-2.2-7.1c-0.7-2.3-1-4.4-1-6.2
		c0-2.9,0.8-5.3,2.3-7.3c1.6-1.9,3.5-2.9,5.7-2.9c2.2,0,4.1,1,5.6,2.9c1.6,1.9,2.3,4.4,2.3,7.3c0,1.8-0.3,3.9-1,6.2
		c-0.7,2.3-1.4,4.7-2.2,7.1c-0.8,2.4-1.6,4.9-2.2,7.4s-1,4.9-1,7.2c2-1.2,3.9-2.7,5.7-4.5c1.8-1.8,3.6-3.7,5.3-5.6
		c1.7-1.9,3.4-3.8,5-5.5c1.6-1.7,3.2-3.1,4.8-3.9c2-1.2,4-1.7,6-1.7c1.5,0,2.8,0.3,3.9,0.9c1.2,0.6,2.1,1.5,2.7,2.6
		c0.6,1.2,0.9,2.3,0.9,3.4c0,1.7-0.5,3.3-1.5,4.9c-1,1.6-2.4,2.9-4.2,3.9c-1.5,0.9-3.4,1.6-5.7,2.1c-2.3,0.5-4.7,1.1-7.2,1.6
		c-2.5,0.5-5,1.1-7.4,1.8s-4.7,1.6-6.7,2.7c2,1.1,4.2,2,6.7,2.6c2.5,0.7,5,1.2,7.5,1.7c2.5,0.5,4.9,1,7.3,1.6
		c2.3,0.5,4.3,1.3,5.8,2.1c1.8,1.1,3.2,2.4,4.2,4c0.9,1.6,1.4,3.2,1.4,4.8c0,1.1-0.3,2.2-0.9,3.4c-0.7,1.2-1.5,2-2.7,2.6
		c-1.1,0.6-2.4,0.9-3.9,0.9c-2.1,0-4.2-0.5-6.2-1.6c-1.6-0.9-3.2-2.2-4.8-3.9c-1.6-1.7-3.3-3.5-5-5.5c-1.7-1.9-3.5-3.8-5.2-5.7
		c-1.8-1.9-3.7-3.4-5.7-4.5c0,2.3,0.3,4.6,1,7.2s1.4,5,2.2,7.5c0.8,2.5,1.6,4.9,2.2,7.2c0.7,2.3,1,4.3,1,6.1c0,2.9-0.8,5.4-2.3,7.3
		s-3.4,3-5.6,3c-2.3,0-4.2-1-5.7-3s-2.3-4.4-2.3-7.3c0-1.8,0.3-3.9,1-6.2s1.4-4.7,2.2-7.1c0.8-2.4,1.5-4.9,2.2-7.4s1-4.9,1.1-7.2
		c-2,1.2-3.9,2.8-5.7,4.6c-1.8,1.8-3.6,3.7-5.3,5.6c-1.7,1.9-3.4,3.8-5,5.5c-1.6,1.7-3.3,3-4.9,3.9c-2.1,1.2-4.2,1.9-6.1,1.9
		c-1.5,0-2.8-0.3-3.9-0.9c-1.2-0.6-2.1-1.5-2.7-2.6c-0.6-1-0.9-2.1-0.9-3.3c0-1.7,0.5-3.3,1.5-5c1-1.6,2.4-3,4.3-4
		c1.5-0.9,3.3-1.6,5.6-2.1c2.3-0.5,4.7-1.1,7.3-1.6c2.6-0.5,5.1-1.1,7.7-1.8c2.6-0.7,4.8-1.6,6.8-2.7c-2-1.2-4.2-2.1-6.7-2.7
		c-2.5-0.7-5-1.2-7.6-1.7c-2.6-0.5-5-1-7.3-1.6c-2.3-0.5-4.2-1.3-5.7-2.2c-1.8-1.1-3.3-2.5-4.3-4.1c-1.1-1.6-1.6-3.2-1.6-4.8
		c0-1.2,0.3-2.4,1-3.4c0.7-1.2,1.6-2.1,2.8-2.7c1.2-0.5,2.5-0.8,4-0.8c2.1,0,4.2,0.5,6.1,1.5c1.6,1,3.2,2.4,4.8,4.2
		c1.6,1.7,3.2,3.6,4.9,5.5c1.7,1.9,3.4,3.8,5.2,5.6C300.8,427.7,302.8,429.1,304.8,430.3z"/>
</g>
</svg>
