<?xml version="1.0" encoding="utf-8"?>
<!-- Generator: Adobe Illustrator 18.1.0, SVG Export Plug-In . SVG Version: 6.00 Build 0)  -->
<svg version="1.1" id="Lager_1" xmlns="http://www.w3.org/2000/svg" xmlns:xlink="http://www.w3.org/1999/xlink" x="0px" y="0px"
	 viewBox="0 0 500 500" enable-background="new 0 0 500 500" xml:space="preserve">
<path fill="#010101" d="M309.5,25.3v56.5H324V25.3H309.5z M244,41.2l-12.5,8l30,48l12.5-8L244,41.2L244,41.2z M391,42.8l-27.5,49.5
	l13,7.5L404,50.3L391,42.8z M179.5,96.7l-7,13l49,27.5l7.5-13L179.5,96.7L179.5,96.7z M317,98.7c-50.5,0-91.5,41.5-91.5,92
	s41,92,91.5,92s91.5-41,91.5-92S367.5,98.7,317,98.7z M455.5,100.8l-49,28l7.5,13l49-28.5L455.5,100.8L455.5,100.8z M151,178.7v15
	h56.5v-15H151z M426.5,179.8v14.5H483v-14.5H426.5z M215.5,231.7l-47.5,30l7.5,12.5l48-30L215.5,231.7z M416,235.3l-7,13l49,27.5
	l7.5-13L416,235.3z M378.5,280.3l-12.5,7.5l28,49l12.5-7.5L378.5,280.3z M255.5,280.8L228,330.3l13,7.5l27.5-49.5
	C268.5,287.8,255.5,280.8,255.5,280.8z M309,300.3v56.5h14.5v-56.5H309z"/>
<path fill="#010101" stroke="#FFFFFF" stroke-width="8" stroke-miterlimit="10" d="M242.6,135.3c-52.3,0-94.3,41.6-97.3,93
	c-25.3,2.6-45.4,21.4-49.7,46.3c-1.3,0-2.6-0.9-4.3-0.9c-27.9,0-50.6,22.7-50.6,50.2c0,13.7,6.4,25.7,16.3,32.2
	c9.9,6.4,21.9,8.6,34.3,8.6h128.6h69.9h64.7c43.7,0,79.8-35.6,79.8-79.8c0-43.7-35.6-79.8-79.8-79.8c-6.9,0-12.9,1.7-18.9,3.4
	C324.9,167,288,135.3,242.6,135.3L242.6,135.3z"/>
</svg>
