<?xml version="1.0" encoding="utf-8"?>
<!-- Generator: Adobe Illustrator 18.1.0, SVG Export Plug-In . SVG Version: 6.00 Build 0)  -->
<svg version="1.1" id="Lager_1" xmlns="http://www.w3.org/2000/svg" xmlns:xlink="http://www.w3.org/1999/xlink" x="0px" y="0px"
	 viewBox="0 0 500 500" enable-background="new 0 0 500 500" xml:space="preserve">
<g>
	<path d="M161.5,428c0-2.3-0.3-4.6-1-7.2c-0.7-2.5-1.4-5-2.2-7.4c-0.8-2.4-1.6-4.8-2.2-7.1c-0.7-2.3-1-4.4-1-6.2
		c0-2.9,0.8-5.3,2.3-7.3c1.6-1.9,3.5-2.9,5.7-2.9c2.2,0,4.1,1,5.6,2.9c1.6,1.9,2.3,4.4,2.3,7.3c0,1.8-0.3,3.9-1,6.2
		c-0.7,2.3-1.4,4.7-2.2,7.1c-0.8,2.4-1.6,4.9-2.2,7.4c-0.7,2.5-1,4.9-1,7.2c2-1.2,3.9-2.7,5.7-4.5c1.8-1.8,3.6-3.7,5.3-5.6
		c1.7-1.9,3.4-3.8,5-5.5s3.2-3.1,4.8-3.9c2-1.2,4-1.7,6-1.7c1.5,0,2.8,0.3,3.9,0.9c1.2,0.6,2.1,1.5,2.7,2.6c0.6,1.2,0.9,2.3,0.9,3.4
		c0,1.7-0.5,3.3-1.5,4.9c-1,1.6-2.4,2.9-4.2,3.9c-1.5,0.9-3.4,1.6-5.7,2.1c-2.3,0.5-4.7,1.1-7.2,1.6c-2.5,0.5-5,1.1-7.4,1.8
		c-2.5,0.7-4.7,1.6-6.7,2.7c2,1.1,4.2,2,6.7,2.6s5,1.2,7.5,1.7c2.5,0.5,4.9,1,7.3,1.6c2.3,0.5,4.3,1.3,5.8,2.1
		c1.8,1.1,3.2,2.4,4.2,4c0.9,1.6,1.4,3.2,1.4,4.8c0,1.1-0.3,2.2-0.9,3.4c-0.7,1.2-1.5,2-2.7,2.6c-1.1,0.6-2.4,0.9-3.9,0.9
		c-2.1,0-4.2-0.5-6.2-1.6c-1.6-0.9-3.2-2.2-4.8-3.9c-1.6-1.7-3.3-3.5-5-5.5c-1.7-1.9-3.5-3.8-5.2-5.7s-3.7-3.4-5.7-4.5
		c0,2.3,0.3,4.6,1,7.2s1.4,5,2.2,7.5c0.8,2.5,1.6,4.9,2.2,7.2c0.7,2.3,1,4.3,1,6.1c0,2.9-0.8,5.4-2.3,7.3c-1.6,2-3.4,3-5.6,3
		c-2.3,0-4.2-1-5.7-3c-1.6-2-2.3-4.4-2.3-7.3c0-1.8,0.3-3.9,1-6.2c0.7-2.3,1.4-4.7,2.2-7.1c0.8-2.4,1.5-4.9,2.2-7.4
		c0.7-2.5,1-4.9,1.1-7.2c-2,1.2-3.9,2.8-5.7,4.6c-1.8,1.8-3.6,3.7-5.3,5.6c-1.7,1.9-3.4,3.8-5,5.5c-1.6,1.7-3.3,3-4.9,3.9
		c-2.1,1.2-4.2,1.9-6.1,1.9c-1.5,0-2.8-0.3-3.9-0.9c-1.2-0.6-2.1-1.5-2.7-2.6c-0.6-1-0.9-2.1-0.9-3.3c0-1.7,0.5-3.3,1.5-5
		c1-1.6,2.4-3,4.3-4c1.5-0.9,3.3-1.6,5.6-2.1c2.3-0.5,4.7-1.1,7.3-1.6c2.6-0.5,5.1-1.1,7.7-1.8s4.8-1.6,6.8-2.7
		c-2-1.2-4.2-2.1-6.7-2.7c-2.5-0.7-5-1.2-7.6-1.7c-2.6-0.5-5-1-7.3-1.6c-2.3-0.5-4.2-1.3-5.7-2.2c-1.8-1.1-3.3-2.5-4.3-4.1
		c-1.1-1.6-1.6-3.2-1.6-4.8c0-1.2,0.3-2.4,1-3.4c0.7-1.2,1.6-2.1,2.8-2.7c1.2-0.5,2.5-0.8,4-0.8c2.1,0,4.2,0.5,6.1,1.5
		c1.6,1,3.2,2.4,4.8,4.2c1.6,1.7,3.2,3.6,4.9,5.5c1.7,1.9,3.4,3.8,5.2,5.6C157.6,425.3,159.5,426.8,161.5,428z"/>
</g>
<g>
	<path d="M249.8,428c0-2.3-0.3-4.6-1-7.2c-0.7-2.5-1.4-5-2.2-7.4c-0.8-2.4-1.6-4.8-2.2-7.1c-0.7-2.3-1-4.4-1-6.2
		c0-2.9,0.8-5.3,2.3-7.3c1.6-1.9,3.5-2.9,5.7-2.9c2.2,0,4.1,1,5.6,2.9c1.6,1.9,2.3,4.4,2.3,7.3c0,1.8-0.3,3.9-1,6.2
		c-0.7,2.3-1.4,4.7-2.2,7.1c-0.8,2.4-1.6,4.9-2.2,7.4c-0.7,2.5-1,4.9-1,7.2c2-1.2,3.9-2.7,5.7-4.5c1.8-1.8,3.6-3.7,5.3-5.6
		c1.7-1.9,3.4-3.8,5-5.5c1.6-1.7,3.2-3.1,4.8-3.9c2-1.2,4-1.7,6-1.7c1.5,0,2.8,0.3,3.9,0.9c1.2,0.6,2.1,1.5,2.7,2.6
		c0.6,1.2,0.9,2.3,0.9,3.4c0,1.7-0.5,3.3-1.5,4.9c-1,1.6-2.4,2.9-4.2,3.9c-1.5,0.9-3.4,1.6-5.7,2.1c-2.3,0.5-4.7,1.1-7.2,1.6
		c-2.5,0.5-5,1.1-7.4,1.8c-2.5,0.7-4.7,1.6-6.7,2.7c2,1.1,4.2,2,6.7,2.6s5,1.2,7.5,1.7c2.5,0.5,4.9,1,7.3,1.6
		c2.3,0.5,4.3,1.3,5.8,2.1c1.8,1.1,3.2,2.4,4.2,4c0.9,1.6,1.4,3.2,1.4,4.8c0,1.1-0.3,2.2-0.9,3.4c-0.7,1.2-1.5,2-2.7,2.6
		c-1.1,0.6-2.4,0.9-3.9,0.9c-2.1,0-4.2-0.5-6.2-1.6c-1.6-0.9-3.2-2.2-4.8-3.9c-1.6-1.7-3.3-3.5-5-5.5c-1.7-1.9-3.5-3.8-5.2-5.7
		c-1.8-1.9-3.7-3.4-5.7-4.5c0,2.3,0.3,4.6,1,7.2c0.7,2.5,1.4,5,2.2,7.5c0.8,2.5,1.6,4.9,2.2,7.2c0.7,2.3,1,4.3,1,6.1
		c0,2.9-0.8,5.4-2.3,7.3c-1.6,2-3.4,3-5.6,3c-2.3,0-4.2-1-5.7-3c-1.6-2-2.3-4.4-2.3-7.3c0-1.8,0.3-3.9,1-6.2
		c0.7-2.3,1.4-4.7,2.2-7.1c0.8-2.4,1.5-4.9,2.2-7.4s1-4.9,1.1-7.2c-2,1.2-3.9,2.8-5.7,4.6c-1.8,1.8-3.6,3.7-5.3,5.6
		c-1.7,1.9-3.4,3.8-5,5.5c-1.6,1.7-3.3,3-4.9,3.9c-2.1,1.2-4.2,1.9-6.1,1.9c-1.5,0-2.8-0.3-3.9-0.9c-1.2-0.6-2.1-1.5-2.7-2.6
		c-0.6-1-0.9-2.1-0.9-3.3c0-1.7,0.5-3.3,1.5-5c1-1.6,2.4-3,4.3-4c1.5-0.9,3.3-1.6,5.6-2.1c2.3-0.5,4.7-1.1,7.3-1.6
		c2.6-0.5,5.1-1.1,7.7-1.8c2.6-0.7,4.8-1.6,6.8-2.7c-2-1.2-4.2-2.1-6.7-2.7c-2.5-0.7-5-1.2-7.6-1.7c-2.6-0.5-5-1-7.3-1.6
		c-2.3-0.5-4.2-1.3-5.7-2.2c-1.8-1.1-3.3-2.5-4.3-4.1c-1.1-1.6-1.6-3.2-1.6-4.8c0-1.2,0.3-2.4,1-3.4c0.7-1.2,1.6-2.1,2.8-2.7
		c1.2-0.5,2.5-0.8,4-0.8c2.1,0,4.2,0.5,6.1,1.5c1.6,1,3.2,2.4,4.8,4.2c1.6,1.7,3.2,3.6,4.9,5.5c1.7,1.9,3.4,3.8,5.2,5.6
		C245.8,425.3,247.8,426.8,249.8,428z"/>
</g>
<g>
	<path d="M335.5,428c0-2.3-0.3-4.6-1-7.2c-0.7-2.5-1.4-5-2.2-7.4c-0.8-2.4-1.6-4.8-2.2-7.1s-1-4.4-1-6.2c0-2.9,0.8-5.3,2.3-7.3
		c1.6-1.9,3.5-2.9,5.7-2.9c2.2,0,4.1,1,5.6,2.9c1.6,1.9,2.3,4.4,2.3,7.3c0,1.8-0.3,3.9-1,6.2c-0.7,2.3-1.4,4.7-2.2,7.1
		c-0.8,2.4-1.6,4.9-2.2,7.4c-0.7,2.5-1,4.9-1,7.2c2-1.2,3.9-2.7,5.7-4.5c1.8-1.8,3.6-3.7,5.3-5.6c1.7-1.9,3.4-3.8,5-5.5
		c1.6-1.7,3.2-3.1,4.8-3.9c2-1.2,4-1.7,6-1.7c1.5,0,2.8,0.3,3.9,0.9c1.2,0.6,2.1,1.5,2.7,2.6c0.6,1.2,0.9,2.3,0.9,3.4
		c0,1.7-0.5,3.3-1.5,4.9c-1,1.6-2.4,2.9-4.2,3.9c-1.5,0.9-3.4,1.6-5.7,2.1c-2.3,0.5-4.7,1.1-7.2,1.6c-2.5,0.5-5,1.1-7.4,1.8
		c-2.5,0.7-4.7,1.6-6.7,2.7c2,1.1,4.2,2,6.7,2.6s5,1.2,7.5,1.7c2.5,0.5,4.9,1,7.3,1.6c2.3,0.5,4.3,1.3,5.8,2.1
		c1.8,1.1,3.2,2.4,4.2,4c0.9,1.6,1.4,3.2,1.4,4.8c0,1.1-0.3,2.2-0.9,3.4c-0.7,1.2-1.5,2-2.7,2.6c-1.1,0.6-2.4,0.9-3.9,0.9
		c-2.1,0-4.2-0.5-6.2-1.6c-1.6-0.9-3.2-2.2-4.8-3.9c-1.6-1.7-3.3-3.5-5-5.5c-1.7-1.9-3.5-3.8-5.2-5.7c-1.8-1.9-3.7-3.4-5.7-4.5
		c0,2.3,0.3,4.6,1,7.2s1.4,5,2.2,7.5c0.8,2.5,1.6,4.9,2.2,7.2c0.7,2.3,1,4.3,1,6.1c0,2.9-0.8,5.4-2.3,7.3c-1.6,2-3.4,3-5.6,3
		c-2.3,0-4.2-1-5.7-3c-1.6-2-2.3-4.4-2.3-7.3c0-1.8,0.3-3.9,1-6.2c0.7-2.3,1.4-4.7,2.2-7.1c0.8-2.4,1.5-4.9,2.2-7.4s1-4.9,1.1-7.2
		c-2,1.2-3.9,2.8-5.7,4.6c-1.8,1.8-3.6,3.7-5.3,5.6c-1.7,1.9-3.4,3.8-5,5.5c-1.6,1.7-3.3,3-4.9,3.9c-2.1,1.2-4.2,1.9-6.1,1.9
		c-1.5,0-2.8-0.3-3.9-0.9c-1.2-0.6-2.1-1.5-2.7-2.6c-0.6-1-0.9-2.1-0.9-3.3c0-1.7,0.5-3.3,1.5-5c1-1.6,2.4-3,4.3-4
		c1.5-0.9,3.3-1.6,5.6-2.1c2.3-0.5,4.7-1.1,7.3-1.6c2.6-0.5,5.1-1.1,7.7-1.8c2.6-0.7,4.8-1.6,6.8-2.7c-2-1.2-4.2-2.1-6.7-2.7
		c-2.5-0.7-5-1.2-7.6-1.7c-2.6-0.5-5-1-7.3-1.6c-2.3-0.5-4.2-1.3-5.7-2.2c-1.8-1.1-3.3-2.5-4.3-4.1c-1.1-1.6-1.6-3.2-1.6-4.8
		c0-1.2,0.3-2.4,1-3.4c0.7-1.2,1.6-2.1,2.8-2.7c1.2-0.5,2.5-0.8,4-0.8c2.1,0,4.2,0.5,6.1,1.5c1.6,1,3.2,2.4,4.8,4.2
		c1.6,1.7,3.2,3.6,4.9,5.5c1.7,1.9,3.4,3.8,5.2,5.6C331.5,425.3,333.5,426.8,335.5,428z"/>
</g>
<path fill="#010101" stroke="#FFFFFF" stroke-width="8" stroke-miterlimit="10" d="M257.9,139c-52.3,0-94.3,41.6-97.3,93
	c-25.3,2.6-45.4,21.4-49.7,46.3c-1.3,0-2.6-0.9-4.3-0.9c-27.9,0-50.6,22.7-50.6,50.2c0,13.7,6.4,25.7,16.3,32.2
	c9.9,6.4,21.9,8.6,34.3,8.6h128.6H305h64.7c43.7,0,79.8-35.6,79.8-79.8c0-43.7-35.6-79.8-79.8-79.8c-6.9,0-12.9,1.7-18.9,3.4
	C340.2,170.7,303.3,139,257.9,139L257.9,139z"/>
<polygon fill="#010101" stroke="#FFFFFF" stroke-width="8" stroke-miterlimit="10" points="224.1,194.7 147.1,327.2 202.1,327.2 
	158.1,415.7 290.6,283.2 224.1,283.2 279.6,194.7 "/>
</svg>
