<?xml version="1.0" encoding="utf-8"?>
<!-- Generator: Adobe Illustrator 18.1.0, SVG Export Plug-In . SVG Version: 6.00 Build 0)  -->
<svg version="1.1" id="Lager_1" xmlns="http://www.w3.org/2000/svg" xmlns:xlink="http://www.w3.org/1999/xlink" x="0px" y="0px"
	 viewBox="0 0 500 500" enable-background="new 0 0 500 500" xml:space="preserve">
<path fill="#010101" d="M149.5,387.9c0,0-23.5,48-23.5,65.5s23.5,16,23.5,16s18-2.5,18-18C167.5,435.4,149.5,387.9,149.5,387.9z"/>
<path fill="#010101" d="M217,387.9c0,0-23.5,48-23.5,65.5s23.5,16,23.5,16s18-2.5,18-18C235,435.4,217,387.9,217,387.9z"/>
<path fill="#010101" d="M284.6,387.9c0,0-23.5,48-23.5,65.5s23.5,16,23.5,16s18-2.5,18-18C302.6,435.4,284.6,387.9,284.6,387.9z"/>
<path fill="#010101" d="M286.4,37.2v56.5h14.5V37.2H286.4z M220.9,53.2l-12.5,8l30,48l12.5-8L220.9,53.2L220.9,53.2z M367.9,54.7
	l-27.5,49.5l13,7.5l27.5-49.5L367.9,54.7z M156.4,108.7l-7,13l49,27.5l7.5-13L156.4,108.7L156.4,108.7z M293.9,110.7
	c-50.5,0-91.5,41.5-91.5,92s41,92,91.5,92s91.5-41,91.5-92S344.4,110.7,293.9,110.7z M432.4,112.7l-49,28l7.5,13l49-28.5
	L432.4,112.7L432.4,112.7z M127.9,190.7v15h56.5v-15H127.9z M403.4,191.7v14.5h56.5v-14.5H403.4z M192.4,243.7l-47.5,30l7.5,12.5
	l48-30L192.4,243.7z M392.9,247.2l-7,13l49,27.5l7.5-13L392.9,247.2z M355.4,292.2l-12.5,7.5l28,49l12.5-7.5L355.4,292.2z
	 M232.4,292.7l-27.5,49.5l13,7.5l27.5-49.5C245.4,299.7,232.4,292.7,232.4,292.7z M285.9,312.2v56.5h14.5v-56.5H285.9z"/>
<path fill="#010101" stroke="#FFFFFF" stroke-width="8" stroke-miterlimit="10" d="M219.4,147.3c-52.3,0-94.3,41.6-97.3,93
	c-25.3,2.6-45.4,21.4-49.7,46.3c-1.3,0-2.6-0.9-4.3-0.9c-27.9,0-50.6,22.7-50.6,50.2c0,13.7,6.4,25.7,16.3,32.2
	c9.9,6.4,21.9,8.6,34.3,8.6h128.6h69.9h64.7c43.7,0,79.8-35.6,79.8-79.8c0-43.7-35.6-79.8-79.8-79.8c-6.9,0-12.9,1.7-18.9,3.4
	C301.8,179,264.9,147.3,219.4,147.3L219.4,147.3z"/>
</svg>
