<?xml version="1.0" encoding="utf-8"?>
<!-- Generator: Adobe Illustrator 18.1.0, SVG Export Plug-In . SVG Version: 6.00 Build 0)  -->
<svg version="1.1" id="Lager_1" xmlns="http://www.w3.org/2000/svg" xmlns:xlink="http://www.w3.org/1999/xlink" x="0px" y="0px"
	 viewBox="0 0 500 500" enable-background="new 0 0 500 500" xml:space="preserve">
<g>
	<path d="M213.1,468c2.2,0,4.1-1,5.6-3s2.3-4.4,2.3-7.3c0-1.7-0.3-3.8-1-6.1c-0.7-2.3-1.4-4.7-2.2-7.2c-0.8-2.5-1.6-5-2.2-7.5
		s-1-4.9-1-7.2c2,1.2,4,2.7,5.7,4.5s3.5,3.8,5.2,5.7c1.7,1.9,3.4,3.8,5,5.5c1.6,1.7,3.2,3,4.8,3.9c2,1.1,4.1,1.6,6.2,1.6
		c1.5,0,2.8-0.3,3.9-0.9c1.1-0.6,2-1.5,2.7-2.6c0.6-1.2,0.9-2.3,0.9-3.4c0-1.6-0.5-3.2-1.4-4.8c-0.9-1.6-2.3-3-4.2-4
		c-1.5-0.9-3.5-1.6-5.8-2.1c-2.3-0.5-4.8-1.1-7.3-1.6c-2.5-0.5-5-1.1-7.5-1.7c-2.5-0.7-4.7-1.5-6.7-2.6c2-1.2,4.2-2.1,6.7-2.7
		s5-1.3,7.4-1.8c2.5-0.5,4.9-1.1,7.2-1.6c2.3-0.5,4.2-1.3,5.7-2.1c1.8-1,3.2-2.3,4.2-3.9c1-1.6,1.5-3.2,1.5-4.9
		c0-1.1-0.3-2.2-0.9-3.4c-0.7-1.2-1.6-2-2.7-2.6c-1.2-0.6-2.5-0.9-3.9-0.9c-2,0-4,0.6-6,1.7c-1.5,0.9-3.1,2.2-4.8,3.9
		c-1.6,1.7-3.3,3.6-5,5.5c-1.7,1.9-3.5,3.8-5.3,5.6c-1.8,1.8-3.7,3.3-5.7,4.5c0-2.3,0.3-4.6,1-7.2s1.4-5,2.2-7.4
		c0.8-2.4,1.6-4.8,2.2-7.1c0.7-2.3,1-4.4,1-6.2c0-2.9-0.8-5.3-2.3-7.3c-1.6-1.9-3.4-2.9-5.6-2.9H213c0,0-23.5,48-23.5,65.5
		S213,468,213.1,468"/>
</g>
<path fill="#010101" d="M291.4,28v56.5h14.5V28H291.4z M225.9,44l-12.5,8l30,48l12.5-8L225.9,44L225.9,44z M372.9,45.5L345.4,95
	l13,7.5L385.9,53L372.9,45.5z M161.4,99.5l-7,13l49,27.5l7.5-13L161.4,99.5L161.4,99.5z M298.9,101.5c-50.5,0-91.5,41.5-91.5,92
	s41,92,91.5,92s91.5-41,91.5-92S349.4,101.5,298.9,101.5z M437.4,103.5l-49,28l7.5,13l49-28.5L437.4,103.5L437.4,103.5z
	 M132.9,181.5v15h56.5v-15H132.9z M408.4,182.5V197h56.5v-14.5H408.4z M197.4,234.5l-47.5,30l7.5,12.5l48-30L197.4,234.5z
	 M397.9,238l-7,13l49,27.5l7.5-13L397.9,238z M360.4,283l-12.5,7.5l28,49l12.5-7.5L360.4,283z M237.4,283.5L209.9,333l13,7.5
	l27.5-49.5C250.4,290.5,237.4,283.5,237.4,283.5z M290.9,303v56.5h14.5V303H290.9z"/>
<path fill="#010101" stroke="#FFFFFF" stroke-width="8" stroke-miterlimit="10" d="M224.4,138c-52.3,0-94.3,41.6-97.3,93
	c-25.3,2.6-45.4,21.4-49.7,46.3c-1.3,0-2.6-0.9-4.3-0.9c-27.9,0-50.6,22.7-50.6,50.2c0,13.7,6.4,25.7,16.3,32.2s21.9,8.6,34.3,8.6
	h128.6h69.9h64.7c43.7,0,79.8-35.6,79.8-79.8c0-43.7-35.6-79.8-79.8-79.8c-6.9,0-12.9,1.7-18.9,3.4C306.8,169.8,269.9,138,224.4,138
	L224.4,138z"/>
</svg>
