<?xml version="1.0" encoding="utf-8"?>
<!-- Generator: Adobe Illustrator 18.1.0, SVG Export Plug-In . SVG Version: 6.00 Build 0)  -->
<svg version="1.1" id="Lager_1" xmlns="http://www.w3.org/2000/svg" xmlns:xlink="http://www.w3.org/1999/xlink" x="0px" y="0px"
	 viewBox="0 0 500 500" enable-background="new 0 0 500 500" xml:space="preserve">
<path fill="#010101" d="M297.7,25.3v56.5h14.5V25.3H297.7z M232.2,41.2l-12.5,8l30,48l12.5-8L232.2,41.2L232.2,41.2z M379.2,42.8
	l-27.5,49.5l13,7.5l27.5-49.5L379.2,42.8z M167.7,96.7l-7,13l49,27.5l7.5-13L167.7,96.7L167.7,96.7z M305.2,98.7
	c-50.5,0-91.5,41.5-91.5,92s41,92,91.5,92s91.5-41,91.5-92S355.7,98.7,305.2,98.7z M443.7,100.8l-49,28l7.5,13l49-28.5L443.7,100.8
	L443.7,100.8z M139.2,178.7v15h56.5v-15H139.2z M414.7,179.8v14.5h56.5v-14.5H414.7z M203.7,231.7l-47.5,30l7.5,12.5l48-30
	L203.7,231.7z M404.2,235.3l-7,13l49,27.5l7.5-13L404.2,235.3z M366.7,280.3l-12.5,7.5l28,49l12.5-7.5L366.7,280.3z M243.7,280.8
	l-27.5,49.5l13,7.5l27.5-49.5C256.7,287.8,243.7,280.8,243.7,280.8z M297.2,300.3v56.5h14.5v-56.5H297.2z"/>
<path fill="#010101" stroke="#FFFFFF" stroke-width="8" stroke-miterlimit="10" d="M230.8,135.3c-52.3,0-94.3,41.6-97.3,93
	c-25.3,2.6-45.4,21.4-49.7,46.3c-1.3,0-2.6-0.9-4.3-0.9c-27.9,0-50.6,22.7-50.6,50.2c0,13.7,6.4,25.7,16.3,32.2
	c9.9,6.4,21.9,8.6,34.3,8.6H208h69.9h64.7c43.7,0,79.8-35.6,79.8-79.8c0-43.7-35.6-79.8-79.8-79.8c-6.9,0-12.9,1.7-18.9,3.4
	C313.1,167,276.2,135.3,230.8,135.3L230.8,135.3z"/>
<g>
	<path d="M182.9,420.3c0-2.3-0.3-4.6-1-7.2c-0.7-2.5-1.4-5-2.2-7.4c-0.8-2.4-1.6-4.8-2.2-7.1c-0.7-2.3-1-4.4-1-6.2
		c0-2.9,0.8-5.3,2.3-7.3c1.6-1.9,3.5-2.9,5.7-2.9c2.2,0,4.1,1,5.6,2.9c1.6,1.9,2.3,4.4,2.3,7.3c0,1.8-0.3,3.9-1,6.2
		c-0.7,2.3-1.4,4.7-2.2,7.1c-0.8,2.4-1.6,4.9-2.2,7.4c-0.7,2.5-1,4.9-1,7.2c2-1.2,3.9-2.7,5.7-4.5c1.8-1.8,3.6-3.7,5.3-5.6
		c1.7-1.9,3.4-3.8,5-5.5s3.2-3.1,4.8-3.9c2-1.2,4-1.7,6-1.7c1.5,0,2.8,0.3,3.9,0.9c1.2,0.6,2.1,1.5,2.7,2.6c0.6,1.2,0.9,2.3,0.9,3.4
		c0,1.7-0.5,3.3-1.5,4.9c-1,1.6-2.4,2.9-4.2,3.9c-1.5,0.9-3.4,1.6-5.7,2.1c-2.3,0.5-4.7,1.1-7.2,1.6c-2.5,0.5-5,1.1-7.4,1.8
		c-2.5,0.7-4.7,1.6-6.7,2.7c2,1.1,4.2,2,6.7,2.6s5,1.2,7.5,1.7c2.5,0.5,4.9,1,7.3,1.6c2.3,0.5,4.3,1.3,5.8,2.1
		c1.8,1.1,3.2,2.4,4.2,4c0.9,1.6,1.4,3.2,1.4,4.8c0,1.1-0.3,2.2-0.9,3.4c-0.7,1.2-1.5,2-2.7,2.6c-1.1,0.6-2.4,0.9-3.9,0.9
		c-2.1,0-4.2-0.5-6.2-1.6c-1.6-0.9-3.2-2.2-4.8-3.9c-1.6-1.7-3.3-3.5-5-5.5c-1.7-1.9-3.5-3.8-5.2-5.7s-3.7-3.4-5.7-4.5
		c0,2.3,0.3,4.6,1,7.2s1.4,5,2.2,7.5c0.8,2.5,1.6,4.9,2.2,7.2c0.7,2.3,1,4.3,1,6.1c0,2.9-0.8,5.4-2.3,7.3c-1.6,2-3.4,3-5.6,3
		c-2.3,0-4.2-1-5.7-3c-1.6-2-2.3-4.4-2.3-7.3c0-1.8,0.3-3.9,1-6.2c0.7-2.3,1.4-4.7,2.2-7.1c0.8-2.4,1.5-4.9,2.2-7.4
		c0.7-2.5,1-4.9,1.1-7.2c-2,1.2-3.9,2.8-5.7,4.6c-1.8,1.8-3.6,3.7-5.3,5.6c-1.7,1.9-3.4,3.8-5,5.5c-1.6,1.7-3.3,3-4.9,3.9
		c-2.1,1.2-4.2,1.9-6.1,1.9c-1.5,0-2.8-0.3-3.9-0.9c-1.2-0.6-2.1-1.5-2.7-2.6c-0.6-1-0.9-2.1-0.9-3.3c0-1.7,0.5-3.3,1.5-5
		c1-1.6,2.4-3,4.3-4c1.5-0.9,3.3-1.6,5.6-2.1c2.3-0.5,4.7-1.1,7.3-1.6c2.6-0.5,5.1-1.1,7.7-1.8s4.8-1.6,6.8-2.7
		c-2-1.2-4.2-2.1-6.7-2.7c-2.5-0.7-5-1.2-7.6-1.7c-2.6-0.5-5-1-7.3-1.6c-2.3-0.5-4.2-1.3-5.7-2.2c-1.8-1.1-3.3-2.5-4.3-4.1
		c-1.1-1.6-1.6-3.2-1.6-4.8c0-1.2,0.3-2.4,1-3.4c0.7-1.2,1.6-2.1,2.8-2.7c1.2-0.5,2.5-0.8,4-0.8c2.1,0,4.2,0.5,6.1,1.5
		c1.6,1,3.2,2.4,4.8,4.2c1.6,1.7,3.2,3.6,4.9,5.5c1.7,1.9,3.4,3.8,5.2,5.6C179,417.6,180.9,419.1,182.9,420.3z"/>
</g>
<g>
	<path d="M268.6,420.3c0-2.3-0.3-4.6-1-7.2c-0.7-2.5-1.4-5-2.2-7.4c-0.8-2.4-1.6-4.8-2.2-7.1s-1-4.4-1-6.2c0-2.9,0.8-5.3,2.3-7.3
		c1.6-1.9,3.5-2.9,5.7-2.9c2.2,0,4.1,1,5.6,2.9c1.6,1.9,2.3,4.4,2.3,7.3c0,1.8-0.3,3.9-1,6.2s-1.4,4.7-2.2,7.1
		c-0.8,2.4-1.6,4.9-2.2,7.4c-0.7,2.5-1,4.9-1,7.2c2-1.2,3.9-2.7,5.7-4.5c1.8-1.8,3.6-3.7,5.3-5.6c1.7-1.9,3.4-3.8,5-5.5
		c1.6-1.7,3.2-3.1,4.8-3.9c2-1.2,4-1.7,6-1.7c1.5,0,2.8,0.3,3.9,0.9c1.2,0.6,2.1,1.5,2.7,2.6c0.6,1.2,0.9,2.3,0.9,3.4
		c0,1.7-0.5,3.3-1.5,4.9c-1,1.6-2.4,2.9-4.2,3.9c-1.5,0.9-3.4,1.6-5.7,2.1c-2.3,0.5-4.7,1.1-7.2,1.6c-2.5,0.5-5,1.1-7.4,1.8
		c-2.5,0.7-4.7,1.6-6.7,2.7c2,1.1,4.2,2,6.7,2.6s5,1.2,7.5,1.7c2.5,0.5,4.9,1,7.3,1.6c2.3,0.5,4.3,1.3,5.8,2.1
		c1.8,1.1,3.2,2.4,4.2,4c0.9,1.6,1.4,3.2,1.4,4.8c0,1.1-0.3,2.2-0.9,3.4c-0.7,1.2-1.5,2-2.7,2.6c-1.1,0.6-2.4,0.9-3.9,0.9
		c-2.1,0-4.2-0.5-6.2-1.6c-1.6-0.9-3.2-2.2-4.8-3.9c-1.6-1.7-3.3-3.5-5-5.5c-1.7-1.9-3.5-3.8-5.2-5.7c-1.8-1.9-3.7-3.4-5.7-4.5
		c0,2.3,0.3,4.6,1,7.2s1.4,5,2.2,7.5c0.8,2.5,1.6,4.9,2.2,7.2c0.7,2.3,1,4.3,1,6.1c0,2.9-0.8,5.4-2.3,7.3c-1.6,2-3.4,3-5.6,3
		c-2.3,0-4.2-1-5.7-3c-1.6-2-2.3-4.4-2.3-7.3c0-1.8,0.3-3.9,1-6.2c0.7-2.3,1.4-4.7,2.2-7.1c0.8-2.4,1.5-4.9,2.2-7.4s1-4.9,1.1-7.2
		c-2,1.2-3.9,2.8-5.7,4.6c-1.8,1.8-3.6,3.7-5.3,5.6c-1.7,1.9-3.4,3.8-5,5.5c-1.6,1.7-3.3,3-4.9,3.9c-2.1,1.2-4.2,1.9-6.1,1.9
		c-1.5,0-2.8-0.3-3.9-0.9c-1.2-0.6-2.1-1.5-2.7-2.6c-0.6-1-0.9-2.1-0.9-3.3c0-1.7,0.5-3.3,1.5-5c1-1.6,2.4-3,4.3-4
		c1.5-0.9,3.3-1.6,5.6-2.1c2.3-0.5,4.7-1.1,7.3-1.6c2.6-0.5,5.1-1.1,7.7-1.8c2.6-0.7,4.8-1.6,6.8-2.7c-2-1.2-4.2-2.1-6.7-2.7
		c-2.5-0.7-5-1.2-7.6-1.7c-2.6-0.5-5-1-7.3-1.6c-2.3-0.5-4.2-1.3-5.7-2.2c-1.8-1.1-3.3-2.5-4.3-4.1c-1.1-1.6-1.6-3.2-1.6-4.8
		c0-1.2,0.3-2.4,1-3.4c0.7-1.2,1.6-2.1,2.8-2.7c1.2-0.5,2.5-0.8,4-0.8c2.1,0,4.2,0.5,6.1,1.5c1.6,1,3.2,2.4,4.8,4.2
		c1.6,1.7,3.2,3.6,4.9,5.5c1.7,1.9,3.4,3.8,5.2,5.6C264.7,417.6,266.6,419.1,268.6,420.3z"/>
</g>
</svg>
