<?xml version="1.0" encoding="utf-8"?>
<!-- Generator: Adobe Illustrator 18.1.0, SVG Export Plug-In . SVG Version: 6.00 Build 0)  -->
<svg version="1.1" id="Lager_1" xmlns="http://www.w3.org/2000/svg" xmlns:xlink="http://www.w3.org/1999/xlink" x="0px" y="0px"
	 viewBox="0 0 600 800" enable-background="new 0 0 600 800" xml:space="preserve">
<rect y="150" fill="none" stroke="#000000" stroke-miterlimit="10" width="150" height="150"/>
<rect x="150" y="150" fill="none" stroke="#000000" stroke-miterlimit="10" width="150" height="150"/>
<rect x="300" y="150" fill="none" stroke="#000000" stroke-miterlimit="10" width="150" height="150"/>
<rect x="450" y="150" fill="none" stroke="#000000" stroke-miterlimit="10" width="150" height="150"/>
<g>
	<rect x="47.2" y="365.5" fill="none" width="150" height="69"/>
	<text transform="matrix(1 0 0 1 67.1482 430.2095)" font-family="'Helvetica'" font-size="90">-17</text>
	<circle fill="none" stroke="#000000" stroke-width="4" stroke-miterlimit="10" cx="209.2" cy="377.5" r="8"/>
	<text transform="matrix(1 0 0 1 197.2263 424.5)" font-family="'Helvetica-Light'" font-size="24">min</text>
</g>
<g>
	<rect x="300" y="365.5" fill="none" width="150" height="69"/>
	<text transform="matrix(1 0 0 1 349.9199 430.2988)" font-family="'Helvetica-Light'" font-size="90">35</text>
	<circle fill="none" stroke="#000000" stroke-width="4" stroke-miterlimit="10" cx="468" cy="373.5" r="8"/>
	<text transform="matrix(1 0 0 1 456 424.5)" font-family="'Helvetica-Light'" font-size="24">max</text>
</g>
<path fill="#010101" d="M72.5,183.5v15.7h4v-15.7H72.5z M54.4,187.9l-3.5,2.2l8.3,13.3l3.5-2.2L54.4,187.9L54.4,187.9z M95.1,188.4
	l-7.6,13.7l3.6,2.1l7.6-13.7L95.1,188.4z M36.5,203.3l-1.9,3.6l13.6,7.6l2.1-3.6L36.5,203.3L36.5,203.3z M74.6,203.9
	c-14,0-25.4,11.5-25.4,25.5s11.4,25.5,25.4,25.5s25.4-11.4,25.4-25.5S88.6,203.9,74.6,203.9z M113,204.4l-13.6,7.8l2.1,3.6l13.6-7.9
	L113,204.4L113,204.4z M28.6,226.1v4.2h15.7v-4.2H28.6z M105,226.4v4h15.7v-4H105z M46.5,240.8l-13.2,8.3l2.1,3.5l13.3-8.3
	L46.5,240.8z M102.1,241.7l-1.9,3.6l13.6,7.6l2.1-3.6L102.1,241.7z M91.7,254.2l-3.5,2.1l7.8,13.6l3.5-2.1L91.7,254.2z M57.6,254.4
	l-7.6,13.7l3.6,2.1l7.6-13.7C61.2,256.3,57.6,254.4,57.6,254.4z M72.4,259.8v15.7h4v-15.7H72.4z"/>
<path fill="#010101" d="M389.5,175.1v15.7h4v-15.7H389.5z M371.4,179.6l-3.5,2.2l8.3,13.3l3.5-2.2L371.4,179.6L371.4,179.6z
	 M412.2,180l-7.6,13.7l3.6,2.1l7.6-13.7L412.2,180z M353.5,195l-1.9,3.6l13.6,7.6l2.1-3.6L353.5,195L353.5,195z M391.6,195.5
	c-14,0-25.4,11.5-25.4,25.5s11.4,25.5,25.4,25.5c14,0,25.4-11.4,25.4-25.5C417,206.9,405.6,195.5,391.6,195.5z M430,196.1l-13.6,7.8
	l2.1,3.6l13.6-7.9L430,196.1L430,196.1z M345.6,217.7v4.2h15.7v-4.2H345.6z M422,218v4h15.7v-4H422z M363.5,232.4l-13.2,8.3l2.1,3.5
	l13.3-8.3L363.5,232.4z M419.1,233.4l-1.9,3.6l13.6,7.6l2.1-3.6L419.1,233.4z M408.7,245.9l-3.5,2.1l7.8,13.6l3.5-2.1L408.7,245.9z
	 M374.6,246l-7.6,13.7l3.6,2.1l7.6-13.7C378.2,247.9,374.6,246,374.6,246z M389.4,251.4v15.7h4v-15.7H389.4z"/>
<path fill="#010101" d="M221.9,183.5v15.7h4v-15.7H221.9z M203.7,187.9l-3.5,2.2l8.3,13.3l3.5-2.2L203.7,187.9L203.7,187.9z
	 M244.5,188.4l-7.6,13.7l3.6,2.1l7.6-13.7L244.5,188.4z M185.8,203.3l-1.9,3.6l13.6,7.6l2.1-3.6L185.8,203.3L185.8,203.3z
	 M223.9,203.9c-14,0-25.4,11.5-25.4,25.5s11.4,25.5,25.4,25.5s25.4-11.4,25.4-25.5S238,203.9,223.9,203.9z M262.4,204.4l-13.6,7.8
	l2.1,3.6l13.6-7.9L262.4,204.4L262.4,204.4z M177.9,226.1v4.2h15.7v-4.2H177.9z M254.3,226.4v4H270v-4H254.3z M195.8,240.8
	l-13.2,8.3l2.1,3.5l13.3-8.3L195.8,240.8z M251.4,241.7l-1.9,3.6l13.6,7.6l2.1-3.6L251.4,241.7z M241,254.2l-3.5,2.1l7.8,13.6
	l3.5-2.1L241,254.2z M206.9,254.4l-7.6,13.7l3.6,2.1l7.6-13.7C210.5,256.3,206.9,254.4,206.9,254.4z M221.7,259.8v15.7h4v-15.7
	H221.7z"/>
<path fill="#010101" stroke="#FFFFFF" stroke-width="4" stroke-miterlimit="10" d="M242.6,230.9c-8,0-14.5,6.4-15,14.3
	c-3.9,0.4-7,3.3-7.7,7.1c-0.2,0-0.4-0.1-0.7-0.1c-4.3,0-7.8,3.5-7.8,7.7c0,2.1,1,4,2.5,4.9c1.5,1,3.4,1.3,5.3,1.3h19.8h10.8h10
	c6.7,0,12.3-5.5,12.3-12.3c0-6.7-5.5-12.3-12.3-12.3c-1.1,0-2,0.3-2.9,0.5C255.3,235.7,249.6,230.9,242.6,230.9L242.6,230.9z"/>
<path fill="#010101" stroke="#FFFFFF" stroke-width="4" stroke-miterlimit="10" d="M371,205.7c-14.5,0-26.2,11.5-27,25.8
	c-7,0.7-12.6,5.9-13.8,12.8c-0.4,0-0.7-0.2-1.2-0.2c-7.7,0-14,6.3-14,13.9c0,3.8,1.8,7.1,4.5,8.9c2.7,1.8,6.1,2.4,9.5,2.4h35.7h19.4
	h18c12.1,0,22.1-9.9,22.1-22.1c0-12.1-9.9-22.1-22.1-22.1c-1.9,0-3.6,0.5-5.2,1C393.8,214.5,383.6,205.7,371,205.7L371,205.7z"/>
<path fill="#010101" stroke="#FFFFFF" stroke-width="8" stroke-miterlimit="10" d="M526.7,197.7c-14.5,0-26.2,11.5-27,25.8
	c-7,0.7-12.6,5.9-13.8,12.8c-0.4,0-0.7-0.2-1.2-0.2c-7.7,0-14,6.3-14,13.9c0,3.8,1.8,7.1,4.5,8.9c2.7,1.8,6.1,2.4,9.5,2.4h35.7h19.4
	h18c12.1,0,22.1-9.9,22.1-22.1c0-12.1-9.9-22.1-22.1-22.1c-1.9,0-3.6,0.5-5.2,1C549.5,206.5,539.3,197.7,526.7,197.7L526.7,197.7z"
	/>
<rect x="42.1" y="289" fill="none" width="65" height="11.3"/>
<text transform="matrix(1 0 0 1 43.1147 297.5302)" font-family="'MyriadPro-Regular'" font-size="12">00:00 - 06:00</text>
<rect x="191.4" y="289" fill="none" width="65" height="11.3"/>
<text transform="matrix(1 0 0 1 192.4522 297.5302)" font-family="'MyriadPro-Regular'" font-size="12">06:00 - 12:00</text>
<rect x="337" y="289" fill="none" width="65" height="11.3"/>
<text transform="matrix(1 0 0 1 338.0605 297.5302)" font-family="'MyriadPro-Regular'" font-size="12">12:00 - 18:00</text>
<rect x="492.7" y="289" fill="none" width="65" height="11.3"/>
<text transform="matrix(1 0 0 1 493.7711 297.5302)" font-family="'MyriadPro-Regular'" font-size="12">18:00 - 00:00</text>
<rect y="649.7" fill="none" stroke="#000000" stroke-miterlimit="10" width="150" height="150"/>
<rect x="150" y="649.7" fill="none" stroke="#000000" stroke-miterlimit="10" width="150" height="150"/>
<rect x="300" y="649.7" fill="none" stroke="#000000" stroke-miterlimit="10" width="150" height="150"/>
<rect x="450" y="649.7" fill="none" stroke="#000000" stroke-miterlimit="10" width="150" height="150"/>
<path fill="#010101" d="M72.5,683.2v15.7h4v-15.7H72.5z M54.4,687.6l-3.5,2.2l8.3,13.3l3.5-2.2L54.4,687.6L54.4,687.6z M95.1,688
	l-7.6,13.7l3.6,2.1l7.6-13.7L95.1,688z M36.5,703l-1.9,3.6l13.6,7.6l2.1-3.6L36.5,703L36.5,703z M74.6,703.6
	c-14,0-25.4,11.5-25.4,25.5s11.4,25.5,25.4,25.5s25.4-11.4,25.4-25.5C100,714.9,88.6,703.6,74.6,703.6z M113,704.1l-13.6,7.8
	l2.1,3.6l13.6-7.9L113,704.1L113,704.1z M28.6,725.8v4.2h15.7v-4.2H28.6z M105,726v4h15.7v-4H105z M46.5,740.5l-13.2,8.3l2.1,3.5
	l13.3-8.3L46.5,740.5z M102.1,741.4l-1.9,3.6l13.6,7.6l2.1-3.6L102.1,741.4z M91.7,753.9l-3.5,2.1l7.8,13.6l3.5-2.1L91.7,753.9z
	 M57.6,754l-7.6,13.7l3.6,2.1l7.6-13.7C61.2,756,57.6,754,57.6,754z M72.4,759.5v15.7h4v-15.7H72.4z"/>
<path fill="#010101" d="M389.5,674.8v15.7h4v-15.7H389.5z M371.4,679.3l-3.5,2.2l8.3,13.3l3.5-2.2L371.4,679.3L371.4,679.3z
	 M412.2,679.7l-7.6,13.7l3.6,2.1l7.6-13.7L412.2,679.7z M353.5,694.7l-1.9,3.6l13.6,7.6l2.1-3.6L353.5,694.7L353.5,694.7z
	 M391.6,695.2c-14,0-25.4,11.5-25.4,25.5c0,14,11.4,25.5,25.4,25.5c14,0,25.4-11.4,25.4-25.5C417,706.6,405.6,695.2,391.6,695.2z
	 M430,695.8l-13.6,7.8l2.1,3.6l13.6-7.9L430,695.8L430,695.8z M345.6,717.4v4.2h15.7v-4.2H345.6z M422,717.7v4h15.7v-4H422z
	 M363.5,732.1l-13.2,8.3l2.1,3.5l13.3-8.3L363.5,732.1z M419.1,733.1l-1.9,3.6l13.6,7.6l2.1-3.6L419.1,733.1z M408.7,745.5l-3.5,2.1
	l7.8,13.6l3.5-2.1L408.7,745.5z M374.6,745.7l-7.6,13.7l3.6,2.1l7.6-13.7C378.2,747.6,374.6,745.7,374.6,745.7z M389.4,751.1v15.7h4
	v-15.7H389.4z"/>
<path fill="#010101" d="M221.9,683.2v15.7h4v-15.7H221.9z M203.7,687.6l-3.5,2.2l8.3,13.3l3.5-2.2L203.7,687.6L203.7,687.6z
	 M244.5,688l-7.6,13.7l3.6,2.1l7.6-13.7L244.5,688z M185.8,703l-1.9,3.6l13.6,7.6l2.1-3.6L185.8,703L185.8,703z M223.9,703.6
	c-14,0-25.4,11.5-25.4,25.5s11.4,25.5,25.4,25.5s25.4-11.4,25.4-25.5C249.3,714.9,238,703.6,223.9,703.6z M262.4,704.1l-13.6,7.8
	l2.1,3.6l13.6-7.9L262.4,704.1L262.4,704.1z M177.9,725.8v4.2h15.7v-4.2H177.9z M254.3,726v4H270v-4H254.3z M195.8,740.5l-13.2,8.3
	l2.1,3.5l13.3-8.3L195.8,740.5z M251.4,741.4l-1.9,3.6l13.6,7.6l2.1-3.6L251.4,741.4z M241,753.9l-3.5,2.1l7.8,13.6l3.5-2.1
	L241,753.9z M206.9,754l-7.6,13.7l3.6,2.1l7.6-13.7C210.5,756,206.9,754,206.9,754z M221.7,759.5v15.7h4v-15.7H221.7z"/>
<path fill="#010101" stroke="#FFFFFF" stroke-width="4" stroke-miterlimit="10" d="M242.6,730.5c-8,0-14.5,6.4-15,14.3
	c-3.9,0.4-7,3.3-7.7,7.1c-0.2,0-0.4-0.1-0.7-0.1c-4.3,0-7.8,3.5-7.8,7.7c0,2.1,1,4,2.5,4.9c1.5,1,3.4,1.3,5.3,1.3h19.8h10.8h10
	c6.7,0,12.3-5.5,12.3-12.3c0-6.7-5.5-12.3-12.3-12.3c-1.1,0-2,0.3-2.9,0.5C255.3,735.4,249.6,730.5,242.6,730.5L242.6,730.5z"/>
<path fill="#010101" stroke="#FFFFFF" stroke-width="4" stroke-miterlimit="10" d="M371,705.3c-14.5,0-26.2,11.5-27,25.8
	c-7,0.7-12.6,5.9-13.8,12.8c-0.4,0-0.7-0.2-1.2-0.2c-7.7,0-14,6.3-14,13.9c0,3.8,1.8,7.1,4.5,8.9c2.7,1.8,6.1,2.4,9.5,2.4h35.7h19.4
	h18c12.1,0,22.1-9.9,22.1-22.1c0-12.1-9.9-22.1-22.1-22.1c-1.9,0-3.6,0.5-5.2,1C393.8,714.1,383.6,705.3,371,705.3L371,705.3z"/>
<path fill="#010101" stroke="#FFFFFF" stroke-width="8" stroke-miterlimit="10" d="M526.7,697.3c-14.5,0-26.2,11.5-27,25.8
	c-7,0.7-12.6,5.9-13.8,12.8c-0.4,0-0.7-0.2-1.2-0.2c-7.7,0-14,6.3-14,13.9c0,3.8,1.8,7.1,4.5,8.9s6.1,2.4,9.5,2.4h35.7h19.4h18
	c12.1,0,22.1-9.9,22.1-22.1c0-12.1-9.9-22.1-22.1-22.1c-1.9,0-3.6,0.5-5.2,1C549.5,706.1,539.3,697.3,526.7,697.3L526.7,697.3z"/>
<rect y="499.4" fill="none" stroke="#000000" stroke-miterlimit="10" width="150" height="150"/>
<rect x="150" y="499.4" fill="none" stroke="#000000" stroke-miterlimit="10" width="150" height="150"/>
<rect x="300" y="499.4" fill="none" stroke="#000000" stroke-miterlimit="10" width="150" height="150"/>
<rect x="450" y="499.4" fill="none" stroke="#000000" stroke-miterlimit="10" width="150" height="150"/>
<path fill="#010101" d="M72.5,532.9v15.7h4v-15.7H72.5z M54.4,537.3l-3.5,2.2l8.3,13.3l3.5-2.2L54.4,537.3L54.4,537.3z M95.1,537.7
	l-7.6,13.7l3.6,2.1l7.6-13.7L95.1,537.7z M36.5,552.7l-1.9,3.6l13.6,7.6l2.1-3.6L36.5,552.7L36.5,552.7z M74.6,553.2
	c-14,0-25.4,11.5-25.4,25.5c0,14,11.4,25.5,25.4,25.5s25.4-11.4,25.4-25.5C100,564.6,88.6,553.2,74.6,553.2z M113,553.8l-13.6,7.8
	l2.1,3.6l13.6-7.9L113,553.8L113,553.8z M28.6,575.4v4.2h15.7v-4.2H28.6z M105,575.7v4h15.7v-4H105z M46.5,590.1l-13.2,8.3l2.1,3.5
	l13.3-8.3L46.5,590.1z M102.1,591.1l-1.9,3.6l13.6,7.6l2.1-3.6L102.1,591.1z M91.7,603.6l-3.5,2.1l7.8,13.6l3.5-2.1L91.7,603.6z
	 M57.6,603.7l-7.6,13.7l3.6,2.1l7.6-13.7C61.2,605.7,57.6,603.7,57.6,603.7z M72.4,609.1v15.7h4v-15.7H72.4z"/>
<path fill="#010101" d="M389.5,524.5v15.7h4v-15.7H389.5z M371.4,528.9l-3.5,2.2l8.3,13.3l3.5-2.2L371.4,528.9L371.4,528.9z
	 M412.2,529.4l-7.6,13.7l3.6,2.1l7.6-13.7L412.2,529.4z M353.5,544.3l-1.9,3.6l13.6,7.6l2.1-3.6L353.5,544.3L353.5,544.3z
	 M391.6,544.9c-14,0-25.4,11.5-25.4,25.5c0,14,11.4,25.5,25.4,25.5c14,0,25.4-11.4,25.4-25.5C417,556.3,405.6,544.9,391.6,544.9z
	 M430,545.4l-13.6,7.8l2.1,3.6l13.6-7.9L430,545.4L430,545.4z M345.6,567.1v4.2h15.7v-4.2H345.6z M422,567.3v4h15.7v-4H422z
	 M363.5,581.8l-13.2,8.3l2.1,3.5l13.3-8.3L363.5,581.8z M419.1,582.7l-1.9,3.6l13.6,7.6l2.1-3.6L419.1,582.7z M408.7,595.2l-3.5,2.1
	l7.8,13.6l3.5-2.1L408.7,595.2z M374.6,595.4l-7.6,13.7l3.6,2.1l7.6-13.7C378.2,597.3,374.6,595.4,374.6,595.4z M389.4,600.8v15.7h4
	v-15.7H389.4z"/>
<path fill="#010101" d="M221.9,532.9v15.7h4v-15.7H221.9z M203.7,537.3l-3.5,2.2l8.3,13.3l3.5-2.2L203.7,537.3L203.7,537.3z
	 M244.5,537.7l-7.6,13.7l3.6,2.1l7.6-13.7L244.5,537.7z M185.8,552.7l-1.9,3.6l13.6,7.6l2.1-3.6L185.8,552.7L185.8,552.7z
	 M223.9,553.2c-14,0-25.4,11.5-25.4,25.5c0,14,11.4,25.5,25.4,25.5s25.4-11.4,25.4-25.5C249.3,564.6,238,553.2,223.9,553.2z
	 M262.4,553.8l-13.6,7.8l2.1,3.6l13.6-7.9L262.4,553.8L262.4,553.8z M177.9,575.4v4.2h15.7v-4.2H177.9z M254.3,575.7v4H270v-4H254.3
	z M195.8,590.1l-13.2,8.3l2.1,3.5l13.3-8.3L195.8,590.1z M251.4,591.1l-1.9,3.6l13.6,7.6l2.1-3.6L251.4,591.1z M241,603.6l-3.5,2.1
	l7.8,13.6l3.5-2.1L241,603.6z M206.9,603.7l-7.6,13.7l3.6,2.1l7.6-13.7C210.5,605.7,206.9,603.7,206.9,603.7z M221.7,609.1v15.7h4
	v-15.7H221.7z"/>
<path fill="#010101" stroke="#FFFFFF" stroke-width="4" stroke-miterlimit="10" d="M242.6,580.2c-8,0-14.5,6.4-15,14.3
	c-3.9,0.4-7,3.3-7.7,7.1c-0.2,0-0.4-0.1-0.7-0.1c-4.3,0-7.8,3.5-7.8,7.7c0,2.1,1,4,2.5,4.9c1.5,1,3.4,1.3,5.3,1.3h19.8h10.8h10
	c6.7,0,12.3-5.5,12.3-12.3c0-6.7-5.5-12.3-12.3-12.3c-1.1,0-2,0.3-2.9,0.5C255.3,585.1,249.6,580.2,242.6,580.2L242.6,580.2z"/>
<path fill="#010101" stroke="#FFFFFF" stroke-width="4" stroke-miterlimit="10" d="M371,555c-14.5,0-26.2,11.5-27,25.8
	c-7,0.7-12.6,5.9-13.8,12.8c-0.4,0-0.7-0.2-1.2-0.2c-7.7,0-14,6.3-14,13.9c0,3.8,1.8,7.1,4.5,8.9c2.7,1.8,6.1,2.4,9.5,2.4h35.7h19.4
	h18c12.1,0,22.1-9.9,22.1-22.1c0-12.1-9.9-22.1-22.1-22.1c-1.9,0-3.6,0.5-5.2,1C393.8,563.8,383.6,555,371,555L371,555z"/>
<path fill="#010101" stroke="#FFFFFF" stroke-width="8" stroke-miterlimit="10" d="M526.7,547c-14.5,0-26.2,11.5-27,25.8
	c-7,0.7-12.6,5.9-13.8,12.8c-0.4,0-0.7-0.2-1.2-0.2c-7.7,0-14,6.3-14,13.9c0,3.8,1.8,7.1,4.5,8.9c2.7,1.8,6.1,2.4,9.5,2.4h35.7h19.4
	h18c12.1,0,22.1-9.9,22.1-22.1c0-12.1-9.9-22.1-22.1-22.1c-1.9,0-3.6,0.5-5.2,1C549.5,555.8,539.3,547,526.7,547L526.7,547z"/>
<rect x="5.3" y="503.5" fill="none" width="65" height="11.3"/>
<text transform="matrix(1 0 0 1 5.3392 512.0672)" font-family="'MyriadPro-Regular'" font-size="12">I morgon</text>
<rect x="5.3" y="654.1" fill="none" width="65" height="11.3"/>
<text transform="matrix(1 0 0 1 5.3392 662.6398)" font-family="'MyriadPro-Regular'" font-size="12">Måndag</text>
<text transform="matrix(1 0 0 1 98.1591 90.8007)" font-family="'Helvetica'" font-size="60">Söndag 27 dec</text>
</svg>
