<?xml version="1.0" encoding="utf-8"?>
<!-- Generator: Adobe Illustrator 18.1.0, SVG Export Plug-In . SVG Version: 6.00 Build 0)  -->
<svg version="1.1" id="Lager_1" xmlns="http://www.w3.org/2000/svg" xmlns:xlink="http://www.w3.org/1999/xlink" x="0px" y="0px"
	 viewBox="0 0 600 800" enable-background="new 0 0 600 800" xml:space="preserve">
<rect y="150" fill="none" stroke="#000000" stroke-miterlimit="10" width="150" height="150"/>
<rect x="150" y="150" fill="none" stroke="#000000" stroke-miterlimit="10" width="150" height="150"/>
<rect x="300" y="150" fill="none" stroke="#000000" stroke-miterlimit="10" width="150" height="150"/>
<rect x="450" y="150" fill="none" stroke="#000000" stroke-miterlimit="10" width="150" height="150"/>
<g>
	<rect x="47.2" y="348.3" fill="none" width="150" height="69"/>
	<text transform="matrix(1 0 0 1 77.2595 412.1619)" font-family="DejaVu-Sans-Book" font-size="90">-17</text>
	<circle fill="none" stroke="#000000" stroke-width="4" stroke-miterlimit="10" cx="209.2" cy="360.3" r="8"/>
	<text transform="matrix(1 0 0 1 197.2263 407.2625)" font-family="DejaVu-Sans-Book" font-size="24">min</text>
</g>
<g>
	<rect x="300" y="348.3" fill="none" width="150" height="69"/>
	<text transform="matrix(1 0 0 1 357.6626 412.1619)" font-family="DejaVu-Sans-Book" font-size="90">35</text>
	<circle fill="none" stroke="#000000" stroke-width="4" stroke-miterlimit="10" cx="468" cy="356.2" r="8"/>
	<text transform="matrix(1 0 0 1 456 407.2625)" font-family="DejaVu-Sans-Book" font-size="24">max</text>
</g>
<path fill="#010101" d="M72.5,183.5v15.7h4v-15.7H72.5z M54.4,187.9l-3.5,2.2l8.3,13.3l3.5-2.2L54.4,187.9L54.4,187.9z M95.1,188.4
	l-7.6,13.7l3.6,2.1l7.6-13.7L95.1,188.4z M36.5,203.3l-1.9,3.6l13.6,7.6l2.1-3.6L36.5,203.3L36.5,203.3z M74.6,203.9
	c-14,0-25.4,11.5-25.4,25.5s11.4,25.5,25.4,25.5s25.4-11.4,25.4-25.5S88.6,203.9,74.6,203.9z M113,204.4l-13.6,7.8l2.1,3.6l13.6-7.9
	L113,204.4L113,204.4z M28.6,226.1v4.2h15.7v-4.2H28.6z M105,226.4v4h15.7v-4H105z M46.5,240.8l-13.2,8.3l2.1,3.5l13.3-8.3
	L46.5,240.8z M102.1,241.7l-1.9,3.6l13.6,7.6l2.1-3.6L102.1,241.7z M91.7,254.2l-3.5,2.1l7.8,13.6l3.5-2.1L91.7,254.2z M57.6,254.4
	l-7.6,13.7l3.6,2.1l7.6-13.7C61.2,256.3,57.6,254.4,57.6,254.4z M72.4,259.8v15.7h4v-15.7H72.4z"/>
<path fill="#010101" d="M389.5,175.1v15.7h4v-15.7H389.5z M371.4,179.6l-3.5,2.2l8.3,13.3l3.5-2.2L371.4,179.6L371.4,179.6z
	 M412.2,180l-7.6,13.7l3.6,2.1l7.6-13.7L412.2,180z M353.5,195l-1.9,3.6l13.6,7.6l2.1-3.6L353.5,195L353.5,195z M391.6,195.5
	c-14,0-25.4,11.5-25.4,25.5s11.4,25.5,25.4,25.5c14,0,25.4-11.4,25.4-25.5C417,206.9,405.6,195.5,391.6,195.5z M430,196.1l-13.6,7.8
	l2.1,3.6l13.6-7.9L430,196.1L430,196.1z M345.6,217.7v4.2h15.7v-4.2H345.6z M422,218v4h15.7v-4H422z M363.5,232.4l-13.2,8.3l2.1,3.5
	l13.3-8.3L363.5,232.4z M419.1,233.4l-1.9,3.6l13.6,7.6l2.1-3.6L419.1,233.4z M408.7,245.9l-3.5,2.1l7.8,13.6l3.5-2.1L408.7,245.9z
	 M374.6,246l-7.6,13.7l3.6,2.1l7.6-13.7C378.2,247.9,374.6,246,374.6,246z M389.4,251.4v15.7h4v-15.7H389.4z"/>
<path fill="#010101" d="M221.9,183.5v15.7h4v-15.7H221.9z M203.7,187.9l-3.5,2.2l8.3,13.3l3.5-2.2L203.7,187.9L203.7,187.9z
	 M244.5,188.4l-7.6,13.7l3.6,2.1l7.6-13.7L244.5,188.4z M185.8,203.3l-1.9,3.6l13.6,7.6l2.1-3.6L185.8,203.3L185.8,203.3z
	 M223.9,203.9c-14,0-25.4,11.5-25.4,25.5s11.4,25.5,25.4,25.5s25.4-11.4,25.4-25.5S238,203.9,223.9,203.9z M262.4,204.4l-13.6,7.8
	l2.1,3.6l13.6-7.9L262.4,204.4L262.4,204.4z M177.9,226.1v4.2h15.7v-4.2H177.9z M254.3,226.4v4H270v-4H254.3z M195.8,240.8
	l-13.2,8.3l2.1,3.5l13.3-8.3L195.8,240.8z M251.4,241.7l-1.9,3.6l13.6,7.6l2.1-3.6L251.4,241.7z M241,254.2l-3.5,2.1l7.8,13.6
	l3.5-2.1L241,254.2z M206.9,254.4l-7.6,13.7l3.6,2.1l7.6-13.7C210.5,256.3,206.9,254.4,206.9,254.4z M221.7,259.8v15.7h4v-15.7
	H221.7z"/>
<path fill="#010101" stroke="#FFFFFF" stroke-width="4" stroke-miterlimit="10" d="M242.6,230.9c-8,0-14.5,6.4-15,14.3
	c-3.9,0.4-7,3.3-7.7,7.1c-0.2,0-0.4-0.1-0.7-0.1c-4.3,0-7.8,3.5-7.8,7.7c0,2.1,1,4,2.5,4.9c1.5,1,3.4,1.3,5.3,1.3h19.8h10.8h10
	c6.7,0,12.3-5.5,12.3-12.3c0-6.7-5.5-12.3-12.3-12.3c-1.1,0-2,0.3-2.9,0.5C255.3,235.7,249.6,230.9,242.6,230.9L242.6,230.9z"/>
<path fill="#010101" stroke="#FFFFFF" stroke-width="4" stroke-miterlimit="10" d="M371,205.7c-14.5,0-26.2,11.5-27,25.8
	c-7,0.7-12.6,5.9-13.8,12.8c-0.4,0-0.7-0.2-1.2-0.2c-7.7,0-14,6.3-14,13.9c0,3.8,1.8,7.1,4.5,8.9c2.7,1.8,6.1,2.4,9.5,2.4h35.7h19.4
	h18c12.1,0,22.1-9.9,22.1-22.1c0-12.1-9.9-22.1-22.1-22.1c-1.9,0-3.6,0.5-5.2,1C393.8,214.5,383.6,205.7,371,205.7L371,205.7z"/>
<path fill="#010101" stroke="#FFFFFF" stroke-width="8" stroke-miterlimit="10" d="M526.7,197.7c-14.5,0-26.2,11.5-27,25.8
	c-7,0.7-12.6,5.9-13.8,12.8c-0.4,0-0.7-0.2-1.2-0.2c-7.7,0-14,6.3-14,13.9c0,3.8,1.8,7.1,4.5,8.9c2.7,1.8,6.1,2.4,9.5,2.4h35.7h19.4
	h18c12.1,0,22.1-9.9,22.1-22.1c0-12.1-9.9-22.1-22.1-22.1c-1.9,0-3.6,0.5-5.2,1C549.5,206.5,539.3,197.7,526.7,197.7L526.7,197.7z"
	/>
<rect x="42.1" y="289" fill="none" width="65" height="11.3"/>
<text transform="matrix(1 0 0 1 43.1147 297.5302)" font-family="DejaVu-Sans-Book" font-size="12">00:00 - 06:00</text>
<rect x="191.4" y="289" fill="none" width="65" height="11.3"/>
<text transform="matrix(1 0 0 1 192.4522 297.5302)" font-family="DejaVu-Sans-Book" font-size="12">06:00 - 12:00</text>
<rect x="337" y="289" fill="none" width="65" height="11.3"/>
<text transform="matrix(1 0 0 1 338.0605 297.5302)" font-family="DejaVu-Sans-Book" font-size="12">12:00 - 18:00</text>
<rect x="492.7" y="289" fill="none" width="65" height="11.3"/>
<text transform="matrix(1 0 0 1 493.7711 297.5302)" font-family="DejaVu-Sans-Book" font-size="12">18:00 - 00:00</text>
<text transform="matrix(1 0 0 1 226.0209 33.5358)" font-family="DejaVu-Sans-Book" font-size="24">Söndag 27 dec</text>
<rect x="314.8" y="50.6" fill="none" width="270.4" height="124.8"/>
<text transform="matrix(1 0 0 1 397.8547 76.1151)"><tspan x="0" y="0" font-family="DejaVu-Sans-Book" font-size="36">Månen</tspan><tspan x="-42" y="43.2" font-family="DejaVu-Sans-Book" font-size="36">07:33 - 22:33</tspan></text>
<rect x="18.4" y="50.6" fill="none" width="263.2" height="112"/>
<text transform="matrix(1 0 0 1 107.9883 76.115)"><tspan x="0" y="0" font-family="DejaVu-Sans-Book" font-size="36">Solen</tspan><tspan x="-52.1" y="43.2" font-family="DejaVu-Sans-Book" font-size="36">09</tspan><tspan x="-15.2" y="43.2" font-family="DejaVu-Sans-Book" font-size="36">:</tspan><tspan x="-8.4" y="43.2" font-family="DejaVu-Sans-Book" font-size="36">37 - 15:12</tspan></text>
<rect x="581.8" y="76.2" fill="none" width="5.1" height="0"/>
</svg>
